{"title":"Born.To.Race.Fast.Track.2014.DVDRip.XviD-EVO","uid":10274740,"size":818690966,"categoryP":"video","categoryS":"movies","magnet":"?xt=urn:btih:8ca086b3d2ad0d2a93b60adfa53a94f9fb02df81&amp;dn=Born.To.Race.Fast.Track.2014.DVDRip.XviD-EVO&amp;tr=udp%3A%2F%2Ftracker.openbittorrent.com%3A80&amp;tr=udp%3A%2F%2Fopen.demonii.com%3A1337&amp;tr=udp%3A%2F%2Ftracker.coppersurfer.tk%3A6969&amp;tr=udp%3A%2F%2Fexodus.desync.com%3A6969","seeders":51,"leechers":15,"uploader":"xxxlavalxxx","files":-1,"time":1401640682,"description":"\n &lt;a href=&quot;\nhttp://www.imdb.com/title/tt2547210/&quot; rel=&quot;nofollow&quot; target=&quot;_NEW&quot;&gt;\nhttp://www.imdb.com/title/tt2547210/&lt;/a&gt;\n\n\nDanny Krueger is a twenty-year old drag racer who plays by his own rules. After winning a scholarship to the prestigious Fast Lane Racing Academy, Danny finds himself competing against some of the fiercest young drivers in the world. Tension soars on and off the track, and a terrible incident leaves Danny without a racing partner. Facing dismissal from the academy, Danny is forced to team up with an old rival. The pair must learn to set aside their differences as they vie for rookie spots on a professional racing team. \n\nDirector: Alex Ranarivelo\nWriters: Steve Sarno (screenplay), Steve Sarno (story)\nStars: Brett Davern, Beau Mirchoff, Bill Sage\nGenres: Action\nCountry: USA\nLanguage: English\n\n\n\nFormat                                   : AVI\nFormat/Info                              : Audio Video Interleave\nFile size                                : 768 MiB\nDuration                                 : 1h 34mn\nOverall bit rate                         : 1 141 Kbps\n\nVideo\nID                                       : 0\nFormat                                   : MPEG-4 Visual\nFormat profile                           : Simple@L3\nFormat settings, BVOP                    : No\nFormat settings, QPel                    : No\nFormat settings, GMC                     : No warppoints\nFormat settings, Matrix                  : Default (H.263)\nCodec ID                                 : XVID\nCodec ID/Hint                            : XviD\nDuration                                 : 1h 34mn\nBit rate                                 : 1 000 Kbps\nWidth                                    : 640 pixels\nHeight                                   : 272 pixels\nDisplay aspect ratio                     : 2.35:1\nFrame rate                               : 25.000 fps\nColor space                              : YUV\nChroma subsampling                       : 4:2:0\nBit depth                                : 8 bits\nScan type                                : Progressive\nCompression mode                         : Lossy\nBits/(Pixel*Frame)                       : 0.230\nStream size                              : 673 MiB (88%)\nWriting library                          : XviD 1.1.2 (UTC 2006-11-01)\n\nAudio\nID                                       : 1\nFormat                                   : MPEG Audio\nFormat version                           : Version 1\nFormat profile                           : Layer 3\nMode                                     : Joint stereo\nMode extension                           : MS Stereo\nCodec ID                                 : 55\nCodec ID/Hint                            : MP3\nDuration                                 : 1h 34mn\nSource duration                          : 1h 34mn\nBit rate mode                            : Constant\nBit rate                                 : 128 Kbps\nChannel(s)                               : 2 channels\nSampling rate                            : 48.0 KHz\nCompression mode                         : Lossy\nStream size                              : 86.2 MiB (11%)\nAlignment                                : Split accross interleaves\nInterleave, duration                     : 24 ms (0.60 video frame)\nWriting library                          : LAME3.98\n\n\n\nscreens\n &lt;a href=&quot;\nhttp://i.imgur.com/ghR34sH.jpg&quot; rel=&quot;nofollow&quot; target=&quot;_NEW&quot;&gt;\nhttp://i.imgur.com/ghR34sH.jpg&lt;/a&gt; &lt;a href=&quot;\nhttp://i.imgur.com/hcj4bgf.jpg&quot; rel=&quot;nofollow&quot; target=&quot;_NEW&quot;&gt;\nhttp://i.imgur.com/hcj4bgf.jpg&lt;/a&gt; &lt;a href=&quot;\nhttp://i.imgur.com/AUj4j52.jpg&quot; rel=&quot;nofollow&quot; target=&quot;_NEW&quot;&gt;\nhttp://i.imgur.com/AUj4j52.jpg&lt;/a&gt;","torrent":{"xt":"urn:btih:8ca086b3d2ad0d2a93b60adfa53a94f9fb02df81","amp;dn":"Born.To.Race.Fast.Track.2014.DVDRip.XviD-EVO","amp;tr":["udp%3A%2F%2Ftracker.openbittorrent.com%3A80","udp%3A%2F%2Fopen.demonii.com%3A1337","udp%3A%2F%2Ftracker.coppersurfer.tk%3A6969","udp%3A%2F%2Fexodus.desync.com%3A6969"],"infoHash":"8ca086b3d2ad0d2a93b60adfa53a94f9fb02df81","infoHashBuffer":{"type":"Buffer","data":[140,160,134,179,210,173,13,42,147,182,10,223,165,58,148,249,251,2,223,129]},"announce":[],"urlList":[]}}